<svg fill="#fff" xmlns="http://www.w3.org/2000/svg" width="24" height="28" viewbox="0 0 24 28"><title>youtube</title><path d="M15.2 19.4v3.3c0 .7-.2 1-.6 1-.3 0-.5 0-.7-.3v-4.7c.2-.2.4-.3.7-.3.4 0 .6.3.6 1zm5.3 0v.8H19v-.7c0-.8.3-1.1.8-1.1s.7.3.7 1zM5.4 16H7v-1.4H2.2V16h1.6v9h1.6v-9zm4.5 9h1.3v-7.8H10v6c-.4.4-.7.6-1 .6l-.3-.3v-6.3H7.2v6.1c0 .6 0 1 .2 1.2 0 .4.4.5.9.5s1-.3 1.6-1v1zm6.7-2.4v-3c0-.8 0-1.3-.2-1.6-.2-.6-.5-.9-1-.9-.6 0-1 .3-1.5.9v-3.4h-1.4v10.3h1.4v-.7c.4.6 1 .8 1.4.8.6 0 1-.3 1.1-.8l.2-1.6zm5.2-.1v-.2h-1.4v1c0 .3-.3.5-.6.5-.5 0-.8-.4-.8-1.1v-1.4h2.8v-1.6c0-.8-.1-1.4-.4-1.8a2 2 0 00-1.6-.8 2 2 0 00-1.7.8c-.3.4-.4 1-.4 1.8v2.7c0 .9.1 1.5.4 1.9.4.5 1 .7 1.7.7s1.3-.2 1.7-.8c.2-.2.3-.5.3-.8v-1zM12.3 8.2V4.9c0-.7-.2-1-.6-1-.5 0-.7.3-.7 1v3.3c0 .7.2 1.1.7 1.1.4 0 .6-.4.6-1.1zm11.3 11.7c0 1.8 0 3.8-.4 5.5a3 3 0 01-2.5 2.3c-2.9.3-5.8.3-8.7.3s-5.8 0-8.7-.3c-1.2-.2-2.2-1-2.5-2.3C.4 23.7.4 21.7.4 20c0-1.8 0-3.7.4-5.4a3 3 0 012.5-2.3c2.9-.3 5.8-.3 8.7-.3s5.8 0 8.7.3a3 3 0 012.5 2.3c.4 1.7.4 3.6.4 5.4zM8 0h1.6l-2 6.2v4.3H6.2V6.2a211 211 0 01-2-6.2h1.7L7 4.1zm5.8 5.2v2.7c0 .9-.2 1.5-.5 1.9a2 2 0 01-1.6.8 2 2 0 01-1.7-.8c-.3-.4-.4-1-.4-1.9V5.2c0-.8.1-1.4.4-1.8a2 2 0 011.7-.8 2 2 0 011.6.8c.3.4.5 1 .5 1.8zM19 2.7v7.8h-1.4v-.9c-.6.7-1.1 1-1.6 1s-.8-.2-1-.6a4 4 0 010-1.2V2.7h1.3V9c0 .2.2.3.4.3.3 0 .6-.2.9-.7v-6H19z"/></svg>
